<svg width="13.75" height="16" viewBox="0 0 55 64" fill="none" xmlns="http://www.w3.org/2000/svg">
<path d="M6.4 64C4.64 64 3.1328 63.3739 1.8784 62.1216C0.626133 60.8672 0 59.36 0 57.6V12.8H6.4V57.6H41.6V64H6.4ZM19.2 51.2C17.44 51.2 15.9339 50.5739 14.6816 49.3216C13.4272 48.0672 12.8 46.56 12.8 44.8V6.4C12.8 4.64 13.4272 3.1328 14.6816 1.8784C15.9339 0.626133 17.44 0 19.2 0H48C49.76 0 51.2672 0.626133 52.5216 1.8784C53.7739 3.1328 54.4 4.64 54.4 6.4V44.8C54.4 46.56 53.7739 48.0672 52.5216 49.3216C51.2672 50.5739 49.76 51.2 48 51.2H19.2ZM19.2 44.8H48V6.4H19.2V44.8Z" fill="#38BDF8"/>
</svg>
