<svg width="40" height="39" viewBox="0 0 40 39" fill="none" xmlns="http://www.w3.org/2000/svg">
<path d="M17.8 0.138431C8.59999 1.13843 1.19999 8.53843 0.199987 17.5384C-0.800013 26.9384 4.59999 35.3384 12.8 38.5384C13.4 38.7384 14 38.3384 14 37.5384V34.3384C14 34.3384 13.2 34.5384 12.2 34.5384C9.39999 34.5384 8.19999 32.1384 7.99999 30.7384C7.79999 29.9384 7.39999 29.3384 6.79999 28.7384C6.19999 28.5384 5.99999 28.5384 5.99999 28.3384C5.99999 27.9384 6.59999 27.9384 6.79999 27.9384C7.99999 27.9384 8.99999 29.3384 9.39999 29.9384C10.4 31.5384 11.6 31.9384 12.2 31.9384C13 31.9384 13.6 31.7384 14 31.5384C14.2 30.1384 14.8 28.7384 16 27.9384C11.4 26.9384 7.99999 24.3384 7.99999 19.9384C7.99999 17.7384 8.99999 15.5384 10.4 13.9384C10.2 13.5384 9.99999 12.5384 9.99999 11.1384C9.99999 10.3384 9.99999 9.13843 10.6 7.93843C10.6 7.93843 13.4 7.93843 16.2 10.5384C17.2 10.1384 18.6 9.93843 20 9.93843C21.4 9.93843 22.8 10.1384 24 10.5384C26.6 7.93843 29.6 7.93843 29.6 7.93843C30 9.13843 30 10.3384 30 11.1384C30 12.7384 29.8 13.5384 29.6 13.9384C31 15.5384 32 17.5384 32 19.9384C32 24.3384 28.6 26.9384 24 27.9384C25.2 28.9384 26 30.7384 26 32.5384V37.7384C26 38.3384 26.6 38.9384 27.4 38.7384C34.8 35.7384 40 28.5384 40 20.1384C40 8.13843 29.8 -1.26157 17.8 0.138431Z" fill="#94A3B8"/>
</svg>
