<svg width="16" height="16" viewBox="0 0 64 64" fill="none" xmlns="http://www.w3.org/2000/svg">
<path d="M30.9715 10.4006L36.6856 4.68641C38.1714 3.20064 39.9352 2.02205 41.8765 1.21796C43.8178 0.413863 45.8984 2.21398e-08 47.9996 0C50.1008 -2.21398e-08 52.1814 0.413863 54.1227 1.21796C56.0639 2.02205 57.8278 3.20064 59.3136 4.68641C60.7994 6.17219 61.9779 7.93606 62.782 9.87732C63.5861 11.8186 64 13.8992 64 16.0004C64 18.1016 63.5861 20.1822 62.782 22.1235C61.9779 24.0648 60.7994 25.8286 59.3136 27.3144L47.8853 38.7427C46.3996 40.2286 44.6357 41.4072 42.6945 42.2114C40.7532 43.0155 38.6725 43.4294 36.5713 43.4294C34.4701 43.4294 32.3894 43.0155 30.4482 42.2114C28.5069 41.4072 26.743 40.2286 25.2573 38.7427C24.652 38.0924 24.3224 37.2327 24.3378 36.3444C24.3531 35.4562 24.7122 34.6084 25.3396 33.9794C25.9686 33.352 26.8164 32.9929 27.7047 32.9776C28.5929 32.9622 29.4526 33.2918 30.1029 33.8971C30.9514 34.7482 31.9595 35.4235 33.0695 35.8843C34.1795 36.3451 35.3695 36.5823 36.5713 36.5823C37.7731 36.5823 38.9631 36.3451 40.0731 35.8843C41.1831 35.4235 42.1912 34.7482 43.0397 33.8971L54.468 22.4688C56.1001 20.7365 56.9931 18.4366 56.9576 16.0568C56.9222 13.6771 55.9611 11.4048 54.2782 9.72183C52.5952 8.03891 50.3229 7.0778 47.9432 7.04236C45.5634 7.00692 43.2635 7.89994 41.5312 9.532L35.817 15.2461C35.1667 15.8514 34.3071 16.181 33.4188 16.1657C32.5305 16.1503 31.6828 15.7912 31.0537 15.1639C30.4264 14.5348 30.0673 13.6871 30.0519 12.7988C30.0366 11.9105 30.3662 11.0509 30.9715 10.4006ZM9.532 54.468C10.3805 55.3191 11.3886 55.9945 12.4986 56.4552C13.6086 56.916 14.7986 57.1532 16.0004 57.1532C17.2022 57.1532 18.3922 56.916 19.5022 56.4552C20.6122 55.9945 21.6203 55.3191 22.4688 54.468L28.183 48.7539C28.8333 48.1486 29.6929 47.819 30.5812 47.8343C31.4695 47.8497 32.3172 48.2088 32.9463 48.8361C33.5736 49.4652 33.9327 50.3129 33.9481 51.2012C33.9634 52.0895 33.6338 52.9491 33.0285 53.5994L27.3144 59.3136C25.8286 60.7994 24.0648 61.9779 22.1235 62.782C20.1822 63.5861 18.1016 64 16.0004 64C11.7568 64 7.68707 62.3142 4.68641 59.3136C1.68575 56.3129 0 52.2432 0 47.9996C0 43.756 1.68575 39.6863 4.68641 36.6856L16.1147 25.2573C17.6004 23.7714 19.3643 22.5928 21.3055 21.7886C23.2468 20.9845 25.3275 20.5706 27.4287 20.5706C29.5299 20.5706 31.6106 20.9845 33.5518 21.7886C35.4931 22.5928 37.257 23.7714 38.7427 25.2573C39.348 25.9076 39.6776 26.7673 39.6622 27.6556C39.6469 28.5438 39.2878 29.3916 38.6604 30.0206C38.0314 30.648 37.1836 31.0071 36.2953 31.0224C35.4071 31.0378 34.5474 30.7082 33.8971 30.1029C33.0486 29.2518 32.0405 28.5765 30.9305 28.1157C29.8205 27.6549 28.6305 27.4177 27.4287 27.4177C26.2269 27.4177 25.0369 27.6549 23.9269 28.1157C22.8169 28.5765 21.8088 29.2518 20.9603 30.1029L9.532 41.5312C8.68086 42.3797 8.00555 43.3878 7.54476 44.4978C7.08398 45.6078 6.84679 46.7978 6.84679 47.9996C6.84679 49.2014 7.08398 50.3914 7.54476 51.5014C8.00555 52.6114 8.68086 53.6195 9.532 54.468Z" fill="#94A3B8"/>
</svg>
