<svg width="16" height="16" viewBox="0 0 16 16" fill="none" xmlns="http://www.w3.org/2000/svg">
<path d="M7.74288 2.60015L9.1714 1.1716C9.54285 0.80016 9.9838 0.505513 10.4691 0.30449C10.9544 0.103466 11.4746 5.53495e-09 11.9999 0C12.5252 -5.53495e-09 13.0453 0.103466 13.5307 0.30449C14.016 0.505513 14.4569 0.80016 14.8284 1.1716C15.1998 1.54305 15.4945 1.98402 15.6955 2.46933C15.8965 2.95465 16 3.4748 16 4.0001C16 4.5254 15.8965 5.04555 15.6955 5.53088C15.4945 6.0162 15.1998 6.45715 14.8284 6.8286L11.9713 9.68567C11.5999 10.0571 11.1589 10.3518 10.6736 10.5528C10.1883 10.7539 9.66813 10.8574 9.14283 10.8574C8.61753 10.8574 8.09735 10.7539 7.61205 10.5528C7.12673 10.3518 6.68575 10.0571 6.31432 9.68567C6.163 9.5231 6.0806 9.30817 6.08445 9.0861C6.08827 8.86405 6.17805 8.6521 6.3349 8.49485C6.49215 8.338 6.7041 8.24823 6.92618 8.2444C7.14823 8.24055 7.36315 8.32295 7.52572 8.47427C7.73785 8.68705 7.98987 8.85588 8.26737 8.97108C8.54487 9.08628 8.84238 9.14557 9.14283 9.14557C9.44328 9.14557 9.74078 9.08628 10.0183 8.97108C10.2958 8.85588 10.5478 8.68705 10.7599 8.47427L13.617 5.6172C14.025 5.18412 14.2483 4.60915 14.2394 4.0142C14.2305 3.41928 13.9903 2.8512 13.5695 2.43046C13.1488 2.00973 12.5807 1.76945 11.9858 1.76059C11.3908 1.75173 10.8159 1.97498 10.3828 2.383L8.95425 3.81153C8.79168 3.96285 8.57678 4.04525 8.3547 4.04143C8.13263 4.03758 7.9207 3.9478 7.76342 3.79098C7.6066 3.6337 7.51683 3.42178 7.51298 3.1997C7.50915 2.97763 7.59155 2.76273 7.74288 2.60015ZM2.383 13.617C2.59512 13.8298 2.84715 13.9986 3.12465 14.1138C3.40215 14.229 3.69965 14.2883 4.0001 14.2883C4.30055 14.2883 4.59805 14.229 4.87555 14.1138C5.15305 13.9986 5.40507 13.8298 5.6172 13.617L7.04575 12.1885C7.20833 12.0371 7.42322 11.9548 7.6453 11.9586C7.86737 11.9624 8.0793 12.0522 8.23658 12.209C8.3934 12.3663 8.48318 12.5782 8.48703 12.8003C8.49085 13.0224 8.40845 13.2373 8.25712 13.3998L6.8286 14.8284C6.45715 15.1998 6.0162 15.4945 5.53088 15.6955C5.04555 15.8965 4.5254 16 4.0001 16C2.9392 16 1.92177 15.5785 1.1716 14.8284C0.421438 14.0782 0 13.0608 0 11.9999C0 10.939 0.421438 9.92158 1.1716 9.1714L4.02868 6.31432C4.4001 5.94285 4.84108 5.6482 5.32638 5.44715C5.8117 5.24613 6.33187 5.14265 6.85717 5.14265C7.38247 5.14265 7.90265 5.24613 8.38795 5.44715C8.87327 5.6482 9.31425 5.94285 9.68567 6.31432C9.837 6.4769 9.9194 6.69182 9.91555 6.9139C9.91173 7.13595 9.82195 7.3479 9.6651 7.50515C9.50785 7.662 9.2959 7.75177 9.07382 7.7556C8.85177 7.75945 8.63685 7.67705 8.47427 7.52572C8.26215 7.31295 8.01013 7.14412 7.73263 7.02892C7.45513 6.91372 7.15762 6.85442 6.85717 6.85442C6.55672 6.85442 6.25923 6.91372 5.98173 7.02892C5.70423 7.14412 5.4522 7.31295 5.24008 7.52572L2.383 10.3828C2.17021 10.5949 2.00139 10.8469 1.88619 11.1244C1.771 11.4019 1.7117 11.6994 1.7117 11.9999C1.7117 12.3003 1.771 12.5978 1.88619 12.8753C2.00139 13.1529 2.17021 13.4049 2.383 13.617Z" fill="#38BDF8"/>
</svg>
