<svg width="36" height="37" viewBox="0 0 36 37" fill="none" xmlns="http://www.w3.org/2000/svg">
<path d="M32 0.938416H4C1.79 0.938416 0 2.72842 0 4.93842V32.9384C0 35.1484 1.79 36.9384 4 36.9384H32C34.21 36.9384 36 35.1484 36 32.9384V4.93842C36 2.72842 34.21 0.938416 32 0.938416ZM12 28.9384H6.954V14.9384H12V28.9384ZM9.388 12.3724C7.846 12.3724 6.816 11.3444 6.816 9.97242C6.816 8.60042 7.844 7.57242 9.558 7.57242C11.1 7.57242 12.13 8.60042 12.13 9.97242C12.13 11.3444 11.102 12.3724 9.388 12.3724ZM30 28.9384H25.116V21.2864C25.116 19.1704 23.814 18.6824 23.326 18.6824C22.838 18.6824 21.21 19.0084 21.21 21.2864C21.21 21.6124 21.21 28.9384 21.21 28.9384H16.164V14.9384H21.21V16.8924C21.86 15.7524 23.162 14.9384 25.604 14.9384C28.046 14.9384 30 16.8924 30 21.2864V28.9384Z" fill="#94A3B8"/>
</svg>
