<svg width="70" height="70" viewBox="0 0 210 210" fill="none" xmlns="http://www.w3.org/2000/svg">
<path d="M50.0286 44.0252H46.8668L45.7461 42.9445C49.6684 38.3819 52.0297 32.4585 52.0297 26.0149C52.0297 11.6467 40.3831 0 26.0149 0C11.6467 0 0 11.6467 0 26.0149C0 40.3831 11.6467 52.0297 26.0149 52.0297C32.4585 52.0297 38.3819 49.6684 42.9445 45.7461L44.0252 46.8668V50.0286L64.0366 70L70 64.0366L50.0286 44.0252ZM26.0149 44.0252C16.0492 44.0252 8.00457 35.9806 8.00457 26.0149C8.00457 16.0492 16.0492 8.00457 26.0149 8.00457C35.9806 8.00457 44.0252 16.0492 44.0252 26.0149C44.0252 35.9806 35.9806 44.0252 26.0149 44.0252Z" fill="#38BDF8"/>
</svg>
