<svg width="80" height="81" viewBox="0 0 80 81" fill="none" xmlns="http://www.w3.org/2000/svg">
<path d="M41.772 24.76H35.772V48.76L54.772 60.16L57.772 55.24L41.772 45.76V24.76ZM61.12 0L79.548 15.38L74.428 21.52L55.988 6.148L61.12 0ZM18.424 0L23.552 6.144L5.12 21.52L0 15.376L18.424 0ZM39.772 8.76C19.892 8.76 3.772 24.88 3.772 44.76C3.772 64.64 19.892 80.76 39.772 80.76C59.652 80.76 75.772 64.64 75.772 44.76C75.772 24.88 59.652 8.76 39.772 8.76ZM39.772 72.76C24.332 72.76 11.772 60.2 11.772 44.76C11.772 29.32 24.332 16.76 39.772 16.76C55.212 16.76 67.772 29.32 67.772 44.76C67.772 60.2 55.212 72.76 39.772 72.76Z" fill="#94A3B8"/>
</svg>
